# xmcd CD database file
#
# Track frame offsets:
#	150
#	9990
#	35340
#	64065
#	84167
#	118266
#	136866
#	164979
#	175554
#	193997
#	219071
#
# Disc length: 3029 seconds
#
# Revision: 2
# Processed by: cddbd v1.4PL0 Copyright (c) Steve Scherf et al.
# Submitted via: CDex 1.50
#
DISCID=8e0bd30b
DTITLE=Keiji Matsumoto - life
DYEAR=2003
DGENRE=Jazz
TTITLE0=WLCM
TTITLE1=tenderness and lonliness
TTITLE2=K.B.T.
TTITLE3=spice life
TTITLE4=sport in Peking
TTITLE5=Belfast Song
TTITLE6=R.P.F.
TTITLE7=mum
TTITLE8=where in my soul
TTITLE9=life
TTITLE10=the ring
EXTD=YEAR: 2003
EXTT0=
EXTT1=
EXTT2=
EXTT3=
EXTT4=
EXTT5=
EXTT6=
EXTT7=
EXTT8=
EXTT9=
EXTT10=
PLAYORDER=
